<?xml version="1.0" encoding="UTF-8" standalone="no"?>
<svg
   inkscape:version="1.1.2 (0a00cf5339, 2022-02-04, custom)"
   id="svg8"
   version="1.1"
   viewBox="0 0 135.46667 135.46666"
   height="512"
   width="512"
   sodipodi:docname="logo.svg"
   xmlns:inkscape="http://www.inkscape.org/namespaces/inkscape"
   xmlns:sodipodi="http://sodipodi.sourceforge.net/DTD/sodipodi-0.dtd"
   xmlns="http://www.w3.org/2000/svg"
   xmlns:svg="http://www.w3.org/2000/svg"
   xmlns:rdf="http://www.w3.org/1999/02/22-rdf-syntax-ns#"
   xmlns:cc="http://creativecommons.org/ns#"
   xmlns:dc="http://purl.org/dc/elements/1.1/">
  <defs
     id="defs2" />
  <sodipodi:namedview
     inkscape:window-maximized="1"
     inkscape:window-y="-8"
     inkscape:window-x="-8"
     inkscape:window-height="1377"
     inkscape:window-width="2560"
     inkscape:snap-nodes="true"
     inkscape:object-nodes="true"
     inkscape:snap-midpoints="false"
     inkscape:snap-smooth-nodes="true"
     inkscape:snap-intersection-paths="true"
     inkscape:object-paths="true"
     showborder="true"
     showgrid="false"
     inkscape:document-rotation="0"
     inkscape:current-layer="layer1"
     inkscape:document-units="px"
     inkscape:cy="355"
     inkscape:cx="365.5"
     inkscape:zoom="1"
     inkscape:pageshadow="2"
     inkscape:pageopacity="0.0"
     borderopacity="1.0"
     bordercolor="#666666"
     pagecolor="#ffffff"
     id="base"
     showguides="true"
     inkscape:guide-bbox="true"
     inkscape:pagecheckerboard="0"
     fit-margin-top="0"
     fit-margin-left="0"
     fit-margin-right="0"
     fit-margin-bottom="0"
     units="px" />
  <metadata
     id="metadata5">
    <rdf:RDF>
      <cc:Work
         rdf:about="">
        <dc:format>image/svg+xml</dc:format>
        <dc:type
           rdf:resource="http://purl.org/dc/dcmitype/StillImage" />
      </cc:Work>
    </rdf:RDF>
  </metadata>
  <g
     id="layer1"
     inkscape:groupmode="layer"
     inkscape:label="Layer 1">
    <circle
       inkscape:export-ydpi="133.50061"
       inkscape:export-xdpi="133.50061"
       r="55.193726"
       cy="59.793438"
       cx="62.389954"
       id="path900"
       style="fill:#000000;stroke-width:3.35217" />
    <path
       inkscape:export-ydpi="133.50061"
       inkscape:export-xdpi="133.50061"
       d="m 62.389942,4.5997178 a 55.194233,55.194233 0 0 0 -38.87959,16.1658802 55.194233,55.194233 0 0 0 0,78.05599 55.194233,55.194233 0 0 0 67.78183,8.084382 c 0.24918,0.35903 0.53192,0.70155 0.85234,1.02195 l 20.814958,20.81499 c 2.88292,2.88289 7.525,2.88288 10.40786,0 l 2.60161,-2.60161 c 2.88287,-2.88287 2.88291,-7.52496 0,-10.40785 l -20.815,-20.814982 c -0.007,-0.007 -0.0154,-0.0141 -0.0229,-0.0216 A 55.194233,55.194233 0 0 0 101.56638,20.765588 55.194233,55.194233 0 0 0 62.389982,4.5997178 Z m 0.001,9.1990402 a 45.995193,45.995193 0 0 1 32.67024,13.47156 45.995193,45.995193 0 0 1 0,65.04655 45.995193,45.995193 0 0 1 -65.04654,0 45.995193,45.995193 0 0 1 0,-65.04655 45.995193,45.995193 0 0 1 32.3763,-13.47156 z"
       style="opacity:0.999;fill:#ffffff;fill-opacity:1;stroke:#000000;stroke-width:9.19903;stroke-miterlimit:4;stroke-dasharray:none;stroke-opacity:1;paint-order:stroke fill markers"
       id="path902" />
    <g
       inkscape:export-ydpi="133.50061"
       inkscape:export-xdpi="133.50061"
       id="g914"
       style="opacity:0.999;fill:#ffffff;fill-opacity:1;stroke:none;stroke-opacity:1"
       transform="matrix(1.3907208,0,0,1.3907208,-109.77988,-98.174863)">
      <rect
         inkscape:export-ydpi="300"
         inkscape:export-xdpi="300"
         transform="rotate(30)"
         rx="2.6458333"
         ry="3.3072917"
         y="32.217762"
         x="140.50848"
         height="6.6145835"
         width="21.166666"
         id="rect906"
         style="opacity:1;fill:#ffffff;fill-opacity:1;stroke:none;stroke-width:16.3208;stroke-opacity:1" />
      <rect
         inkscape:export-ydpi="300"
         inkscape:export-xdpi="300"
         style="opacity:1;fill:#ffffff;fill-opacity:1;stroke:none;stroke-width:16.3208;stroke-opacity:1"
         id="rect908"
         width="21.166666"
         height="6.6145835"
         x="-74.102844"
         y="156.12367"
         ry="3.3072917"
         rx="2.6458333"
         transform="matrix(-0.8660254,0.5,0.5,0.8660254,0,0)" />
      <circle
         inkscape:export-ydpi="300"
         inkscape:export-xdpi="300"
         r="6.6145835"
         cy="121.37445"
         cx="112.51385"
         id="circle910"
         style="opacity:1;fill:#ffffff;fill-opacity:1;stroke:none;stroke-width:25.3153;stroke-opacity:1" />
      <circle
         inkscape:export-ydpi="300"
         inkscape:export-xdpi="300"
         style="opacity:1;fill:#ffffff;fill-opacity:1;stroke:none;stroke-width:25.3153;stroke-opacity:1"
         id="circle912"
         cx="135.29799"
         cy="121.37445"
         r="6.6145835" />
    </g>
  </g>
</svg>
