<?xml version="1.0" encoding="UTF-8" standalone="no"?>
<svg
   inkscape:version="1.1.2 (0a00cf5339, 2022-02-04, custom)"
   id="svg8"
   version="1.1"
   viewBox="0 0 135.46667 135.46666"
   height="512"
   width="512"
   sodipodi:docname="logo.svg"
   inkscape:export-filename="C:\Programming\Web\MeanScout\public\logo.png"
   inkscape:export-xdpi="96"
   inkscape:export-ydpi="96"
   xmlns:inkscape="http://www.inkscape.org/namespaces/inkscape"
   xmlns:sodipodi="http://sodipodi.sourceforge.net/DTD/sodipodi-0.dtd"
   xmlns="http://www.w3.org/2000/svg"
   xmlns:svg="http://www.w3.org/2000/svg"
   xmlns:rdf="http://www.w3.org/1999/02/22-rdf-syntax-ns#"
   xmlns:cc="http://creativecommons.org/ns#"
   xmlns:dc="http://purl.org/dc/elements/1.1/">
  <defs
     id="defs2" />
  <sodipodi:namedview
     inkscape:window-maximized="1"
     inkscape:window-y="-8"
     inkscape:window-x="-8"
     inkscape:window-height="1377"
     inkscape:window-width="2560"
     inkscape:snap-nodes="true"
     inkscape:object-nodes="true"
     inkscape:snap-midpoints="false"
     inkscape:snap-smooth-nodes="true"
     inkscape:snap-intersection-paths="true"
     inkscape:object-paths="true"
     showborder="true"
     showgrid="false"
     inkscape:document-rotation="0"
     inkscape:current-layer="layer1"
     inkscape:document-units="px"
     inkscape:cy="355"
     inkscape:cx="365.5"
     inkscape:zoom="1"
     inkscape:pageshadow="2"
     inkscape:pageopacity="0.0"
     borderopacity="1.0"
     bordercolor="#666666"
     pagecolor="#ffffff"
     id="base"
     showguides="true"
     inkscape:guide-bbox="true"
     inkscape:pagecheckerboard="0"
     fit-margin-top="0"
     fit-margin-left="0"
     fit-margin-right="0"
     fit-margin-bottom="0"
     units="px" />
  <metadata
     id="metadata5">
    <rdf:RDF>
      <cc:Work
         rdf:about="">
        <dc:format>image/svg+xml</dc:format>
        <dc:type
           rdf:resource="http://purl.org/dc/dcmitype/StillImage" />
      </cc:Work>
    </rdf:RDF>
  </metadata>
  <g
     id="layer1"
     inkscape:groupmode="layer"
     inkscape:label="Layer 1">
    <circle
       inkscape:export-ydpi="133.50061"
       inkscape:export-xdpi="133.50061"
       r="55.193726"
       cy="59.793652"
       cx="62.538326"
       id="path900"
       style="fill:#000000;stroke-width:3.35217" />
    <path
       inkscape:export-ydpi="133.50061"
       inkscape:export-xdpi="133.50061"
       d="m 62.389954,4.5997162 a 55.194237,55.194237 0 0 0 -38.879593,16.1658788 55.194237,55.194237 0 0 0 0,78.056007 55.194237,55.194237 0 0 0 67.781823,8.084368 c 0.249182,0.35904 0.531922,0.70156 0.852341,1.02196 l 20.814935,20.81497 c 2.88294,2.88292 7.525,2.88289 10.40788,0 l 2.60161,-2.6016 c 2.88286,-2.88287 2.88291,-7.52496 0,-10.40784 l -20.815,-20.814988 c -0.008,-0.0073 -0.0154,-0.01407 -0.0229,-0.02158 A 55.194237,55.194237 0 0 0 101.56637,20.765587 55.194237,55.194237 0 0 0 62.38999,4.5997162 Z m 9.94e-4,9.1990398 a 45.995196,45.995196 0 0 1 32.670235,13.471562 45.995196,45.995196 0 0 1 0,65.046555 45.995196,45.995196 0 0 1 -65.046542,0 45.995196,45.995196 0 0 1 0,-65.046555 45.995196,45.995196 0 0 1 32.376307,-13.471562 z"
       style="opacity:0.999;fill:#ffffff;fill-opacity:1;stroke:#000000;stroke-width:9.19904;stroke-miterlimit:4;stroke-dasharray:none;stroke-opacity:1;paint-order:stroke fill markers"
       id="path902" />
    <g
       inkscape:export-ydpi="133.50061"
       inkscape:export-xdpi="133.50061"
       id="g914"
       style="opacity:0.999;fill:#ffffff;fill-opacity:1;stroke:none;stroke-opacity:1"
       transform="matrix(1.3907209,0,0,1.3907209,-109.0695,-99.652486)">
      <rect
         inkscape:export-ydpi="300"
         inkscape:export-xdpi="300"
         transform="rotate(30)"
         rx="2.6458333"
         ry="3.3072917"
         y="32.217762"
         x="140.50848"
         height="6.6145835"
         width="21.166666"
         id="rect906"
         style="opacity:1;fill:#ffffff;fill-opacity:1;stroke:none;stroke-width:16.3208;stroke-opacity:1" />
      <rect
         inkscape:export-ydpi="300"
         inkscape:export-xdpi="300"
         style="opacity:1;fill:#ffffff;fill-opacity:1;stroke:none;stroke-width:16.3208;stroke-opacity:1"
         id="rect908"
         width="21.166666"
         height="6.6145835"
         x="-74.102844"
         y="156.12367"
         ry="3.3072917"
         rx="2.6458333"
         transform="matrix(-0.8660254,0.5,0.5,0.8660254,0,0)" />
      <circle
         inkscape:export-ydpi="300"
         inkscape:export-xdpi="300"
         r="6.6145835"
         cy="121.37445"
         cx="112.51385"
         id="circle910"
         style="opacity:1;fill:#ffffff;fill-opacity:1;stroke:none;stroke-width:25.3153;stroke-opacity:1" />
      <circle
         inkscape:export-ydpi="300"
         inkscape:export-xdpi="300"
         style="opacity:1;fill:#ffffff;fill-opacity:1;stroke:none;stroke-width:25.3153;stroke-opacity:1"
         id="circle912"
         cx="135.29799"
         cy="121.37445"
         r="6.6145835" />
    </g>
  </g>
</svg>
